<svg xmlns="http://www.w3.org/2000/svg" viewBox="0 0 30.27 24.6"><title>tw</title><path d="M30.27 2.91a12.42 12.42 0 0 1-3.57 1A6.23 6.23 0 0 0 29.43.47a12.47 12.47 0 0 1-3.94 1.51 6.22 6.22 0 0 0-10.58 5.66 17.63 17.63 0 0 1-12.8-6.49 6.18 6.18 0 0 0-.84 3.12 6.38 6.38 0 0 0 2.94 5.17c-1 0-2.63-.31-2.63-.78v.08a6.06 6.06 0 0 0 4.79 6.04 6.91 6.91 0 0 1-1.73.22 6.73 6.73 0 0 1-1.21-.11 6.19 6.19 0 0 0 5.78 4.31A12.58 12.58 0 0 1 0 21.78a17.56 17.56 0 0 0 9.52 2.79c11.42 0 17.67-9.46 17.67-17.67v-.8a12.61 12.61 0 0 0 3.1-3.22" fill="#fff"/></svg>