<svg xmlns="http://www.w3.org/2000/svg" style="border: 0 !important; clip: rect(0 0 0 0) !important; height: 1px !important; margin: -1px !important; overflow: hidden !important; padding: 0 !important; position: absolute !important; width: 1px !important;" class="root-svg-symbols-element">
  <defs>
      <clipPath id="a"><path fill="none" d="M0 0h22.85v23.23H0z"/></clipPath>
  </defs>
    <symbol id="adopted" viewBox="0 0 23.25 19.83">
      <title>adopted</title><path d="M7.63 19.33a.5.5 0 0 1-.36-.15l-6.63-7a.5.5 0 1 1 .72-.69l6.24 6.59L21.86.68a.5.5 0 1 1 .77.63L8 19.15a.5.5 0 0 1-.37.18z" fill="none" stroke="#88ac36" stroke-miterlimit="10"/>
    </symbol>
    <symbol id="arr-down" viewBox="0 0 54.45 33.59">
      <path fill="none" stroke="#bb8a0b" stroke-width="9" d="M3.18 3.18l24.04 24.04L51.27 3.18"/>
    </symbol>
    <symbol id="cancel" viewBox="0 0 17.47 17.47">
      <title>cancel</title><path d="M1 17a.5.5 0 0 1-.35-.85L16.12.65a.502.502 0 1 1 .71.71L1.35 16.82A.5.5 0 0 1 1 17z" fill="none" stroke="#b14d54" stroke-miterlimit="10"/><path d="M16.47 17a.5.5 0 0 1-.35-.15L.65 1.35a.5.5 0 0 1 .7-.7l15.47 15.46a.5.5 0 0 1-.35.89z" fill="none" stroke="#b14d54" stroke-miterlimit="10"/>
    </symbol>
    <symbol id="clasters-map" viewBox="0 0 44 48.55">
      <title>clasters-map</title><path d="M44 22a22 22 0 1 0-27.17 21.38L22 48.55l5.17-5.17A22 22 0 0 0 44 22" fill="#9e0a33"/>
    </symbol>
    <symbol id="fb" viewBox="0 0 17 31">
      <title>fb</title><path d="M16 .16v5c-1 .09-2 0-2.79 0a2.27 2.27 0 0 0-1.74 1.06 6 6 0 0 0-.33 2.86c1.54.06 3.19 0 4.78 0v5.09h-4.77c-.06 5-.21 10.54-.23 15.78C8.84 30 7 30 4 30V14.27c-1-.06-2 0-4 0V9.16h4.38c0-1-.05-2.6.05-3.69A5.87 5.87 0 0 1 7.29.93 6.26 6.26 0 0 1 10.23 0C12.05-.09 14 0 16 0" fill="#fff"/>
    </symbol>
    <symbol id="ivwork" viewBox="0 0 23.33 23.33">
      <title>ivwork</title><path d="M11.67 1.5a10.17 10.17 0 1 0 10.16 10.17A10.18 10.18 0 0 0 11.67 1.5zm0 21.33a11.17 11.17 0 1 1 11.16-11.16 11.18 11.18 0 0 1-11.16 11.16z" fill="none" stroke="#929497" stroke-linecap="round" stroke-linejoin="round"/><path d="M11.67 12.17a.5.5 0 0 1-.5-.5v-6.9a.5.5 0 0 1 1 0v6.9a.5.5 0 0 1-.5.5z" fill="none" stroke="#929497" stroke-linecap="round" stroke-linejoin="round"/><path d="M8.65 15.19a.5.5 0 0 1-.35-.85l2.9-2.9a.502.502 0 0 1 .71.71L9 15a.5.5 0 0 1-.35.19z" fill="none" stroke="#929497" stroke-linecap="round" stroke-linejoin="round"/>
    </symbol>
    <symbol id="mail" viewBox="0 0 68.06 65.3">
      <title>mail</title><path d="M45.78 32.34c-.39-7.53-6-12.05-12.72-12.05h-.28c-7.78 0-12.1 6.12-12.1 13.07 0 7.79 5.22 12.71 12.07 12.71a12.67 12.67 0 0 0 13-12.21zM32.85 13.56a19.5 19.5 0 0 1 13.68 5.9 2.83 2.83 0 0 1 2.78-3h.41a3.08 3.08 0 0 1 3 3.15v26.84a1.74 1.74 0 0 0 2.92 1.54c4.32-4.43 9.48-22.8-2.68-33.43-11.33-9.92-26.54-8.28-34.62-2.71a26.13 26.13 0 0 0-8.75 31.37c5.83 13.44 22.49 17.45 32.4 13.45 5-2 7.33 4.76 2.12 7-7.87 3.35-29.78 3-40-14.71-6.92-12-6.55-33 11.79-44 14-8.35 32.53-6 43.68 5.61 11.66 12.18 11 35-.39 43.85-5.15 4-12.81.11-12.76-5.76l-.05-1.92a19.14 19.14 0 0 1-13.56 5.64c-10.28 0-19.32-9-19.32-19.32s9-19.53 19.32-19.53" fill="#ffa830"/>
    </symbol>
    <symbol id="ok" viewBox="0 0 43.02 74.25">
      <title>ok</title><path d="M29.27 53.95a35.86 35.86 0 0 0 11.13-4.61 5.622 5.622 0 0 0-6-9.51 24.34 24.34 0 0 1-25.8 0 5.622 5.622 0 0 0-6 9.51 35.86 35.86 0 0 0 11.13 4.61L3.05 64.62a5.636 5.636 0 0 0 7.94 8l10.53-10.53 10.52 10.53a5.636 5.636 0 0 0 7.94-8zm-7.75-15.63A19.16 19.16 0 1 0 2.36 19.16a19.18 19.18 0 0 0 19.16 19.16m0-27.09a7.93 7.93 0 1 1-7.94 7.94 7.94 7.94 0 0 1 7.94-7.94" fill="#fff"/>
    </symbol>
    <symbol id="tocheck" viewBox="0 0 22.85 23.23">
      <title>tocheck</title><g clip-path="url(#a)"><path d="M10 1.5a8.47 8.47 0 1 0 8.44 8.5A8.48 8.48 0 0 0 10 1.5m0 17.94A9.47 9.47 0 1 1 19.44 10 9.48 9.48 0 0 1 10 19.44" fill="#fff"/><path d="M10 1.5a8.47 8.47 0 1 0 8.44 8.5A8.48 8.48 0 0 0 10 1.5zm0 17.94A9.47 9.47 0 1 1 19.44 10 9.48 9.48 0 0 1 10 19.44z" fill="none" stroke="#929497" stroke-linecap="round" stroke-linejoin="round"/><path d="M4.36 10h-1A6.61 6.61 0 0 1 10 3.36v1A5.61 5.61 0 0 0 4.36 10" fill="#fff"/><path d="M4.36 10h-1A6.61 6.61 0 0 1 10 3.36v1A5.61 5.61 0 0 0 4.36 10z" fill="none" stroke="#929497" stroke-linecap="round" stroke-linejoin="round"/><path d="M21.85 22.73a.5.5 0 0 1-.35-.15L15.92 17a.502.502 0 0 1 .71-.71l5.57 5.57a.5.5 0 0 1-.35.85" fill="#fff"/><path d="M21.85 22.73a.5.5 0 0 1-.35-.15L15.92 17a.502.502 0 0 1 .71-.71l5.57 5.57a.5.5 0 0 1-.35.87z" fill="none" stroke="#929497" stroke-linecap="round" stroke-linejoin="round"/></g>
    </symbol>
    <symbol id="vk" viewBox="0 0 32.85 19.06">
      <title>vk</title><path d="M16.47 19.06h1.56a3.33 3.33 0 0 0 .9-.59 1.68 1.68 0 0 0 .27-1s0-2.68 1.18-3.07 2.75 2.52 4.39 3.65a3.05 3.05 0 0 0 2.18.65l4.39-.07s2.29-.15 1.21-1.95a14.62 14.62 0 0 0-3.26-3.78c-2.75-2.55-2.38-2.14.93-6.56 2-2.69 2.82-4.33 2.57-5S31.07.9 31.07.9h-4.94a1.12 1.12 0 0 0-.64.11 1.37 1.37 0 0 0-.44.53 28.6 28.6 0 0 1-1.83 3.85c-2.2 3.73-3.08 3.93-3.44 3.7-.84-.54-.63-2.17-.63-3.33 0-3.62.55-5.13-1.07-5.52a8.43 8.43 0 0 0-2.31-.23 10.67 10.67 0 0 0-4.1.42c-.56.28-1 .89-.73.92a2.21 2.21 0 0 1 1.46.73 4.77 4.77 0 0 1 .49 2.24s.29 4.26-.68 4.79c-.67.36-1.58-.38-3.54-3.77a31.56 31.56 0 0 1-1.76-3.65 1.47 1.47 0 0 0-.44-.55 2 2 0 0 0-.76-.31L1.07.9a1.6 1.6 0 0 0-1 .33 1 1 0 0 0 0 .84s3.67 8.8 7.83 13.13a12 12 0 0 0 8.15 3.91" fill="#fff"/>
    </symbol>
    <symbol id="world" viewBox="0 0 65.82 65.82">
      <title>world</title><path d="M4.9 48.42h57m-57-32h56M33.4.9v64M.9 32.42h64m-15.78.48c0 17.91-7.22 32.42-16.22 32.42S16.71 50.81 16.71 32.9 23.96.5 32.9.5s16.22 14.51 16.22 32.4zm16.21 0A32.41 32.41 0 1 1 32.9.5a32.41 32.41 0 0 1 32.42 32.4z" fill="none" stroke="#ddbc7e" stroke-miterlimit="10"/>
    </symbol></svg>