<svg id="Слой_1" xmlns="http://www.w3.org/2000/svg" viewBox="0 0 23.3 23.3"><style>.st0{fill:none;stroke:#929497;stroke-linecap:round;stroke-linejoin:round}</style><title>ivwork</title><path class="st0" d="M11.5 1.5C5.9 1.5 1.4 6 1.4 11.7s4.4 10.2 10 10.2 10.1-4.5 10.1-10.2c0-5.6-4.4-10.2-10-10.2zm0 21.3C5.3 22.8.4 17.8.4 11.6.4 5.4 5.3.4 11.4.4c6.2 0 11.1 5 11.1 11.2 0 6.2-4.8 11.2-11 11.2z"/><path class="st0" d="M12 12.2c-.3 0-.5-.2-.5-.5V4.8c0-.3.2-.5.5-.5s.5.2.5.5v6.9c0 .2-.2.5-.5.5z"/><path class="st0" d="M9 15.2c-.3 0-.5-.2-.5-.5 0-.1.1-.3.1-.3l2.9-2.9c.2-.2.5-.2.7 0s.2.5 0 .7L9.4 15c-.1.1-.2.2-.4.2z"/></svg>