<svg xmlns="http://www.w3.org/2000/svg" viewBox="0 0 32.85 19.06"><title>vk</title><path d="M16.47 19.06h1.56a3.33 3.33 0 0 0 .9-.59 1.68 1.68 0 0 0 .27-1s0-2.68 1.18-3.07 2.75 2.52 4.39 3.65a3.05 3.05 0 0 0 2.18.65l4.39-.07s2.29-.15 1.21-1.95a14.62 14.62 0 0 0-3.26-3.78c-2.75-2.55-2.38-2.14.93-6.56 2-2.69 2.82-4.33 2.57-5S31.07.9 31.07.9h-4.94a1.12 1.12 0 0 0-.64.11 1.37 1.37 0 0 0-.44.53 28.6 28.6 0 0 1-1.83 3.85c-2.2 3.73-3.08 3.93-3.44 3.7-.84-.54-.63-2.17-.63-3.33 0-3.62.55-5.13-1.07-5.52a8.43 8.43 0 0 0-2.31-.23 10.67 10.67 0 0 0-4.1.42c-.56.28-1 .89-.73.92a2.21 2.21 0 0 1 1.46.73 4.77 4.77 0 0 1 .49 2.24s.29 4.26-.68 4.79c-.67.36-1.58-.38-3.54-3.77a31.56 31.56 0 0 1-1.76-3.65 1.47 1.47 0 0 0-.44-.55 2 2 0 0 0-.76-.31L1.07.9a1.6 1.6 0 0 0-1 .33 1 1 0 0 0 0 .84s3.67 8.8 7.83 13.13a12 12 0 0 0 8.15 3.91" fill="#fff"/></svg>