<svg xmlns="http://www.w3.org/2000/svg" viewBox="0 0 23.33 23.33"><title>ivwork</title><path d="M11.67 1.5a10.17 10.17 0 1 0 10.16 10.17A10.18 10.18 0 0 0 11.67 1.5zm0 21.33a11.17 11.17 0 1 1 11.16-11.16 11.18 11.18 0 0 1-11.16 11.16z" fill="none" stroke="#929497" stroke-linecap="round" stroke-linejoin="round"/><path d="M11.67 12.17a.5.5 0 0 1-.5-.5v-6.9a.5.5 0 0 1 1 0v6.9a.5.5 0 0 1-.5.5z" fill="none" stroke="#929497" stroke-linecap="round" stroke-linejoin="round"/><path d="M8.65 15.19a.5.5 0 0 1-.35-.85l2.9-2.9a.502.502 0 0 1 .71.71L9 15a.5.5 0 0 1-.35.19z" fill="none" stroke="#929497" stroke-linecap="round" stroke-linejoin="round"/></svg>