<svg xmlns="http://www.w3.org/2000/svg" viewBox="0 0 22.85 23.23"><defs><clipPath id="a"><path fill="none" d="M0 0h22.85v23.23H0z"/></clipPath></defs><title>tocheck</title><g clip-path="url(#a)"><path d="M10 1.5a8.47 8.47 0 1 0 8.44 8.5A8.48 8.48 0 0 0 10 1.5m0 17.94A9.47 9.47 0 1 1 19.44 10 9.48 9.48 0 0 1 10 19.44" fill="#fff"/><path d="M10 1.5a8.47 8.47 0 1 0 8.44 8.5A8.48 8.48 0 0 0 10 1.5zm0 17.94A9.47 9.47 0 1 1 19.44 10 9.48 9.48 0 0 1 10 19.44z" fill="none" stroke="#929497" stroke-linecap="round" stroke-linejoin="round"/><path d="M4.36 10h-1A6.61 6.61 0 0 1 10 3.36v1A5.61 5.61 0 0 0 4.36 10" fill="#fff"/><path d="M4.36 10h-1A6.61 6.61 0 0 1 10 3.36v1A5.61 5.61 0 0 0 4.36 10z" fill="none" stroke="#929497" stroke-linecap="round" stroke-linejoin="round"/><path d="M21.85 22.73a.5.5 0 0 1-.35-.15L15.92 17a.502.502 0 0 1 .71-.71l5.57 5.57a.5.5 0 0 1-.35.85" fill="#fff"/><path d="M21.85 22.73a.5.5 0 0 1-.35-.15L15.92 17a.502.502 0 0 1 .71-.71l5.57 5.57a.5.5 0 0 1-.35.87z" fill="none" stroke="#929497" stroke-linecap="round" stroke-linejoin="round"/></g></svg>