<?xml version="1.0" encoding="utf-8"?>
<!-- Generator: Adobe Illustrator 19.2.1, SVG Export Plug-In . SVG Version: 6.00 Build 0)  -->
<svg version="1.1" id="Слой_1" xmlns="http://www.w3.org/2000/svg" xmlns:xlink="http://www.w3.org/1999/xlink" x="0px" y="0px"
	 viewBox="0 0 23.3 23.3" style="enable-background:new 0 0 23.3 23.3;" xml:space="preserve">
<style type="text/css">
	.st0{fill:none;stroke:#929497;stroke-linecap:round;stroke-linejoin:round;}
</style>
<title>ivwork</title>
<path class="st0" d="M11.5,1.5C5.9,1.5,1.4,6,1.4,11.7s4.4,10.2,10,10.2c5.6,0,10.1-4.5,10.1-10.2c0,0,0,0,0,0
	C21.5,6.1,17.1,1.5,11.5,1.5z M11.5,22.8c-6.2,0-11.1-5-11.1-11.2c0-6.2,4.9-11.2,11-11.2c6.2,0,11.1,5,11.1,11.2c0,0,0,0,0,0
	C22.5,17.8,17.7,22.8,11.5,22.8z"/>
<path class="st0" d="M12,12.2c-0.3,0-0.5-0.2-0.5-0.5V4.8c0-0.3,0.2-0.5,0.5-0.5s0.5,0.2,0.5,0.5v6.9C12.5,11.9,12.3,12.2,12,12.2z"
	/>
<path class="st0" d="M9,15.2c-0.3,0-0.5-0.2-0.5-0.5c0-0.1,0.1-0.3,0.1-0.3l2.9-2.9c0.2-0.2,0.5-0.2,0.7,0s0.2,0.5,0,0.7L9.4,15
	C9.3,15.1,9.2,15.2,9,15.2z"/>
</svg>
