<svg xmlns="http://www.w3.org/2000/svg" viewBox="0 0 68.06 65.3"><title>mail</title><path d="M383,49.19c-0.39-7.53-6-12.05-12.72-12.05H370c-7.78,0-12.1,6.12-12.1,13.07,0,7.79,5.22,12.71,12.07,12.71a12.67,12.67,0,0,0,13-12.21ZM370.07,30.41a19.5,19.5,0,0,1,13.68,5.9h0a2.83,2.83,0,0,1,2.78-3h0.41a3.08,3.08,0,0,1,3,3.15V63.3a1.74,1.74,0,0,0,2.92,1.54c4.32-4.43,9.48-22.8-2.68-33.43-11.33-9.92-26.54-8.28-34.62-2.71a26.13,26.13,0,0,0-8.75,31.37c5.83,13.44,22.49,17.45,32.4,13.45,5-2,7.33,4.76,2.12,7-7.87,3.35-29.78,3-40-14.71-6.92-12-6.55-33,11.79-44,14-8.35,32.53-6,43.68,5.61,11.66,12.18,11,35-.39,43.85-5.15,4-12.81.11-12.76-5.76l-0.05-1.92a19.14,19.14,0,0,1-13.56,5.64c-10.28,0-19.32-9-19.32-19.32s9-19.53,19.32-19.53" transform="translate(-337.22 -16.85)" style="fill:#ffa830"/></svg>