<svg xmlns="http://www.w3.org/2000/svg" viewBox="0 0 43.02 74.25"><title>ok</title><path d="M218.13,66.33a35.86,35.86,0,0,0,11.13-4.61,5.62,5.62,0,0,0-6-9.51,24.34,24.34,0,0,1-25.8,0,5.62,5.62,0,0,0-6,9.51,35.86,35.86,0,0,0,11.13,4.61L191.91,77A5.61,5.61,0,0,0,199.85,85l10.53-10.53L220.9,85A5.61,5.61,0,0,0,228.84,77Z" transform="translate(-188.86 -12.38)" style="fill:#fff"/><path d="M210.38,50.7a19.16,19.16,0,1,0-19.16-19.16A19.18,19.18,0,0,0,210.38,50.7m0-27.09a7.93,7.93,0,1,1-7.94,7.94,7.94,7.94,0,0,1,7.94-7.94" transform="translate(-188.86 -12.38)" style="fill:#fff"/></svg>