<svg xmlns="http://www.w3.org/2000/svg" xmlns:xlink="http://www.w3.org/1999/xlink" viewBox="0 0 22.8 23.2"><defs><clipPath id="a" transform="translate(0 0)"><rect width="22.8" height="23.23" style="fill:none"/></clipPath></defs><title>tocheck</title><g style="clip-path:url(#a)"><path d="M10,1.5A8.5,8.5,0,1,0,18.4,10,8.5,8.5,0,0,0,10,1.5m0,17.9A9.5,9.5,0,1,1,19.4,10,9.5,9.5,0,0,1,10,19.4" transform="translate(0 0)" style="fill:#fff"/><path d="M10,1.5A8.5,8.5,0,1,0,18.4,10,8.5,8.5,0,0,0,10,1.5Zm0,17.9A9.5,9.5,0,1,1,19.4,10,9.5,9.5,0,0,1,10,19.4Z" transform="translate(0 0)" style="fill:none;stroke:#929497;stroke-linecap:round;stroke-linejoin:round"/><path d="M4.4,10h-1A6.6,6.6,0,0,1,10,3.4v1A5.6,5.6,0,0,0,4.4,10" transform="translate(0 0)" style="fill:#fff"/><path d="M4.4,9.7h-1c0-3,3.1-6.4,6.1-6.4v1A5.1,5.1,0,0,0,4.4,9.7Z" transform="translate(0 0)" style="fill:none;stroke:#929497;stroke-linecap:round;stroke-linejoin:round"/><path d="M21.8,22.7H21.5L15.9,17a0.5,0.5,0,0,1,.7-0.7l5.6,5.6a0.5,0.5,0,0,1,0,.7H21.8" transform="translate(0 0)" style="fill:#fff"/><path d="M21.8,22.7H21.5L15.9,17a0.5,0.5,0,0,1,.7-0.7l5.6,5.6a0.5,0.5,0,0,1,0,.7H21.8Z" transform="translate(0 0)" style="fill:none;stroke:#929497;stroke-linecap:round;stroke-linejoin:round"/></g></svg>