<svg xmlns="http://www.w3.org/2000/svg" xmlns:xlink="http://www.w3.org/1999/xlink" viewBox="0 0 117.19 86.4"><defs><clipPath id="a" transform="translate(0 0)"><rect width="117.18" height="86.4" style="fill:none"/></clipPath></defs><title>etap22</title><g style="clip-path:url(#a)"><path d="M58.74,31.54H38.12a1,1,0,1,1,0-1.92H58.74a1,1,0,1,1,0,1.92" transform="translate(0 0)" style="fill:#bb8a0b"/><path d="M58.74,56.44H38.12a1,1,0,1,1,0-1.92H58.74a1,1,0,1,1,0,1.92" transform="translate(0 0)" style="fill:#bb8a0b"/><path d="M58.74,44H38.12a1,1,0,0,1,0-1.92H58.74a1,1,0,0,1,0,1.92" transform="translate(0 0)" style="fill:#c72032"/><path d="M58.74,68.89H38.12a1,1,0,0,1,0-1.92H58.74a1,1,0,0,1,0,1.92" transform="translate(0 0)" style="fill:#c72032"/><path d="M72.84,86.4h-57A0.87,0.87,0,0,1,15,85.53V13.74a0.87,0.87,0,0,1,.87-0.87H56.34a0.87,0.87,0,1,1,0,1.74H16.7V84.66H72V14.61h-16a0.87,0.87,0,1,1,0-1.74H72.84a0.87,0.87,0,0,1,.87.87V85.53a0.87,0.87,0,0,1-.87.87" transform="translate(0 0)" style="fill:#bb8a0b"/><path d="M26.54,46.32A1,1,0,0,1,25.8,46l-4.09-5a1,1,0,1,1,1.49-1.22l3.22,3.92,3.38-5.56a1,1,0,0,1,1.64,1l-4.09,6.71a1,1,0,0,1-.75.46H26.54" transform="translate(0 0)" style="fill:#c72032"/><path d="M26.54,71.23a1,1,0,0,1-.74-0.35l-4.09-5a1,1,0,1,1,1.49-1.22l3.22,3.92,3.38-5.56a1,1,0,0,1,1.64,1l-4.09,6.71a1,1,0,0,1-.75.46H26.54" transform="translate(0 0)" style="fill:#c72032"/><path d="M101.18,42.67H77.92a1,1,0,1,1,0-1.92h23.26a1,1,0,1,1,0,1.92" transform="translate(0 0)" style="fill:#c72032"/><path d="M103.91,67.29H93a3.59,3.59,0,0,1-3.7-3.7V19.81a3.59,3.59,0,0,1,3.7-3.7h10.94a1,1,0,0,1,0,1.92H93a1.67,1.67,0,0,0-1.78,1.77V63.59A1.67,1.67,0,0,0,93,65.36h10.94a1,1,0,1,1,0,1.92" transform="translate(0 0)" style="fill:#c72032"/><path d="M110.07,11.89a5.19,5.19,0,1,0,5.19,5.19,5.2,5.2,0,0,0-5.19-5.19m0,12.31a7.12,7.12,0,1,1,7.12-7.12,7.13,7.13,0,0,1-7.12,7.12" transform="translate(0 0)" style="fill:#c72032"/><path d="M110.07,61a5.19,5.19,0,1,0,5.19,5.19A5.2,5.2,0,0,0,110.07,61m0,12.31a7.12,7.12,0,1,1,7.12-7.12,7.13,7.13,0,0,1-7.12,7.12" transform="translate(0 0)" style="fill:#c72032"/><path d="M107.33,36.51a5.19,5.19,0,1,0,5.2,5.19,5.2,5.2,0,0,0-5.2-5.19m0,12.31a7.12,7.12,0,1,1,7.12-7.12,7.13,7.13,0,0,1-7.12,7.12" transform="translate(0 0)" style="fill:#c72032"/><path d="M15.68,78.21H9.17V8.16H64.44v5.51h1.74V7.29a0.87,0.87,0,0,0-.87-0.87H8.3a0.87,0.87,0,0,0-.87.87V79.08a0.87,0.87,0,0,0,.87.87h7.37V78.21Z" transform="translate(0 0)" style="fill:#bb8a0b"/><path d="M8.24,71.79H1.74V1.74H57V7.25h1.74V0.87A0.87,0.87,0,0,0,57.88,0h-57A0.87,0.87,0,0,0,0,.87V72.66a0.87,0.87,0,0,0,.87.87H8.24V71.79Z" transform="translate(0 0)" style="fill:#bb8a0b"/></g></svg>