<svg xmlns="http://www.w3.org/2000/svg" xmlns:xlink="http://www.w3.org/1999/xlink" viewBox="0 0 92.51 84.27"><defs><clipPath id="a" transform="translate(0 0)"><rect width="92.51" height="84.27" style="fill:none"/></clipPath></defs><title>etap3</title><g style="clip-path:url(#a)"><path d="M90.69,61a3.61,3.61,0,0,1-3.61,3.61H5.43A3.62,3.62,0,0,1,1.82,61V5.43A3.61,3.61,0,0,1,5.43,1.82H87.08a3.62,3.62,0,0,1,3.61,3.61V61ZM87.08,0H5.43A5.43,5.43,0,0,0,0,5.43V61A5.44,5.44,0,0,0,5.43,66.4H87.08A5.43,5.43,0,0,0,92.51,61V5.43A5.44,5.44,0,0,0,87.08,0" transform="translate(0 0)" style="fill:#bb8a0b"/><path d="M40.76,70.08a0.91,0.91,0,0,0-.91.91V82.45H27a0.91,0.91,0,0,0,0,1.82H40.76a0.91,0.91,0,0,0,.91-0.91V71a0.91,0.91,0,0,0-.91-0.91" transform="translate(0 0)" style="fill:#bb8a0b"/><path d="M65.49,82.45H52.66V71a0.91,0.91,0,1,0-1.82,0V83.36a0.91,0.91,0,0,0,.91.91H65.49a0.91,0.91,0,1,0,0-1.82" transform="translate(0 0)" style="fill:#bb8a0b"/><path d="M17.4,14.07H10.53a0.91,0.91,0,1,0,0,1.82H17.4a0.91,0.91,0,0,0,0-1.82" transform="translate(0 0)" style="fill:#c72032"/><path d="M82,14.07h-5.5a0.91,0.91,0,1,0,0,1.82H82a0.91,0.91,0,1,0,0-1.82" transform="translate(0 0)" style="fill:#c72032"/><path d="M17.4,25.06H10.53a0.91,0.91,0,1,0,0,1.82H17.4a0.91,0.91,0,0,0,0-1.82" transform="translate(0 0)" style="fill:#c72032"/><path d="M49,25.06H27a0.91,0.91,0,0,0,0,1.82H49a0.91,0.91,0,0,0,0-1.82" transform="translate(0 0)" style="fill:#c72032"/><path d="M82,25.06H60a0.91,0.91,0,1,0,0,1.82H82a0.91,0.91,0,1,0,0-1.82" transform="translate(0 0)" style="fill:#c72032"/><path d="M27,15.89H68.24a0.91,0.91,0,1,0,0-1.82H27a0.91,0.91,0,1,0,0,1.82" transform="translate(0 0)" style="fill:#c72032"/><path d="M27,39.26H44.88a0.91,0.91,0,0,0,0-1.82H27a0.91,0.91,0,1,0,0,1.82" transform="translate(0 0)" style="fill:#c72032"/><path d="M71.9,38.35A0.91,0.91,0,0,0,71,37.44H53.13a0.91,0.91,0,1,0,0,1.82H71a0.91,0.91,0,0,0,.91-0.91" transform="translate(0 0)" style="fill:#c72032"/><path d="M49,48.44H27a0.91,0.91,0,0,0,0,1.82H49a0.91,0.91,0,0,0,0-1.82" transform="translate(0 0)" style="fill:#c72032"/><path d="M82,48.44H60a0.91,0.91,0,0,0,0,1.82H82a0.91,0.91,0,1,0,0-1.82" transform="translate(0 0)" style="fill:#c72032"/></g></svg>