<svg xmlns="http://www.w3.org/2000/svg" xmlns:xlink="http://www.w3.org/1999/xlink" viewBox="0 0 104.58 84.51"><defs><clipPath id="a" transform="translate(0 0)"><rect width="104.58" height="84.51" style="fill:none"/></clipPath></defs><title>etap1</title><g style="clip-path:url(#a)"><path d="M86.09,19.91l5.51-5.51a0.89,0.89,0,1,0-1.26-1.26l-5.51,5.51a0.89,0.89,0,0,0,0,1.26,0.91,0.91,0,0,0,1.26,0" transform="translate(0 0)" style="fill:#d41b4a"/><path d="M103.69,42.28H96.33a0.89,0.89,0,1,0,0,1.79h7.35a0.89,0.89,0,1,0,0-1.79" transform="translate(0 0)" style="fill:#d41b4a"/><path d="M93.21,31.1l7.35-3.68a0.89,0.89,0,0,0-.8-1.6l-7.35,3.68a0.9,0.9,0,0,0-.4,1.2,0.91,0.91,0,0,0,1.2.4" transform="translate(0 0)" style="fill:#d41b4a"/><path d="M95.59,78.1A4.63,4.63,0,0,1,91,82.72H6.41A4.63,4.63,0,0,1,1.79,78.1V68H95.59V78.1ZM5.33,45.91h9.3L12.94,66.18H2Zm11.13-.45L68.74,2.19,76.89,13.6,14.83,65Zm59.25,0.45,2.79,5.57H34l6.72-5.57h35ZM85.85,66.18H16.24L31.83,53.26H79.39ZM84.9,45.91L95,66.18H87.85L77.71,45.91H84.9ZM97.29,66.67h0l-11-22.06a0.89,0.89,0,0,0-.8-0.49H42.87L78.67,14.45a0.9,0.9,0,0,0,.16-1.21L69.64,0.37a0.89,0.89,0,0,0-1.3-.17L15.28,44.12H4.57a0.89,0.89,0,0,0-.88.75L0,66.85a1.71,1.71,0,0,1,0,.22L0,68V78.1a6.42,6.42,0,0,0,6.41,6.41H91a6.42,6.42,0,0,0,6.41-6.41v-11a0.87,0.87,0,0,0-.09-0.4" transform="translate(0 0)" style="fill:#bb8a0b"/></g></svg>