<svg xmlns="http://www.w3.org/2000/svg" viewBox="0 0 22.8 23.2"><defs><clipPath id="a"><path fill="none" d="M0 0h22.8v23.23H0z"/></clipPath></defs><title>tocheck</title><g clip-path="url(#a)"><path d="M10 1.5a8.5 8.5 0 1 0 8.4 8.5A8.5 8.5 0 0 0 10 1.5m0 17.9a9.5 9.5 0 1 1 9.4-9.4 9.5 9.5 0 0 1-9.4 9.4" fill="#fff"/><path d="M10 1.5a8.5 8.5 0 1 0 8.4 8.5A8.5 8.5 0 0 0 10 1.5zm0 17.9a9.5 9.5 0 1 1 9.4-9.4 9.5 9.5 0 0 1-9.4 9.4z" fill="none" stroke="#929497" stroke-linecap="round" stroke-linejoin="round"/><path d="M4.4 10h-1A6.6 6.6 0 0 1 10 3.4v1A5.6 5.6 0 0 0 4.4 10" fill="#fff"/><path d="M4.4 9.7h-1c0-3 3.1-6.4 6.1-6.4v1a5.1 5.1 0 0 0-5.1 5.4z" fill="none" stroke="#929497" stroke-linecap="round" stroke-linejoin="round"/><path d="M21.8 22.7h-.3L15.9 17a.5.5 0 0 1 .7-.7l5.6 5.6a.5.5 0 0 1 0 .7h-.4" fill="#fff"/><path d="M21.8 22.7h-.3L15.9 17a.5.5 0 0 1 .7-.7l5.6 5.6a.5.5 0 0 1 0 .7h-.4z" fill="none" stroke="#929497" stroke-linecap="round" stroke-linejoin="round"/></g></svg>